<svg xmlns="http://www.w3.org/2000/svg" width="18" height="18">
  <path fill="#a9b3ce" fill-rule="evenodd"
        d="M10 1l.4 1.3.1.5.5.2a6.3 6.3 0 0 1 .9.3l.4.3.4-.3 1.3-.6L15.3 4l-.6 1.2-.2.5.2.4a6.1 6.1 0 0 1 .3 1l.2.4.5.1 1.3.5v1.8l-1.3.5-.5.1-.2.5a6.1 6.1 0 0 1-.3.9l-.2.4.2.4.6 1.3-1.3 1.3-1.3-.6-.4-.2-.5.2a6.3 6.3 0 0 1-.8.3l-.5.2-.1.5-.5 1.3H8.1l-.5-1.3-.1-.5L7 15a6.3 6.3 0 0 1-.9-.3l-.4-.3-.4.3-1.3.6L2.7 14l.6-1.3.2-.4-.2-.5A6.1 6.1 0 0 1 3 11l-.2-.5-.5-.1L1 9.9V8.1l1.3-.5.5-.1L3 7a6.1 6.1 0 0 1 .3-.9l.2-.4-.2-.5L2.7 4 4 2.7l1.3.6.4.3.4-.3a6.3 6.3 0 0 1 1-.3l.4-.2.1-.5.5-1.3h1.8m.7-1H7.4l-.7 2a7.3 7.3 0 0 0-1 .4l-2-1-2.2 2.4 1 1.9a7.4 7.4 0 0 0-.5 1l-2 .7v3.2l2 .7a7.4 7.4 0 0 0 .4 1l-1 2 2.4 2.2 1.9-1a7.4 7.4 0 0 0 1 .5l.7 2h3.2l.7-2a7.4 7.4 0 0 0 1-.4l2 1 2.2-2.4-1-1.9a7.5 7.5 0 0 0 .5-1l2-.7V7.4l-2-.7a7.5 7.5 0 0 0-.4-1l1-2-2.4-2.2-1.9 1a7.3 7.3 0 0 0-1-.5l-.7-2zM9 6a3 3 0 1 1-3 3 3 3 0 0 1 3-3zm0 1a2 2 0 1 1-2 2 2 2 0 0 1 2-2z"
        data-name="SYSTEM MASTER"/>
</svg>
