<svg id="title" xmlns="http://www.w3.org/2000/svg" width="250" height="70" viewBox="0 0 250 70">
  <metadata><?xpacket begin="﻿" id="W5M0MpCehiHzreSzNTczkc9d"?>
    <x:xmpmeta xmlns:x="adobe:ns:meta/" x:xmptk="Adobe XMP Core 5.6-c140 79.160451, 2017/05/06-01:08:21        ">
      <rdf:RDF xmlns:rdf="http://www.w3.org/1999/02/22-rdf-syntax-ns#">
        <rdf:Description rdf:about=""/>
      </rdf:RDF>
    </x:xmpmeta>


    <?xpacket end="w"?>
  </metadata>
  <defs>
    <style>
      .cls-1 {
      fill: #515151;
      }

      .cls-1, .cls-2 {
      fill-rule: evenodd;
      }

      .cls-2 {
      fill: #20292e;
      }
    </style>
  </defs>
  <path id="Analytic_Accounting_System" data-name="Analytic Accounting System" class="cls-1"
        d="M752.232,265.494h-5.4l2.394-6.624,0.306-1.026,0.306,1.026Zm-3.348-8.6-4.878,13.536h1.116l1.458-4.122h5.9l1.458,4.122h1.116L750.18,256.89h-1.3Zm15.006,4.59a3.184,3.184,0,0,0-2.469-.99,3.544,3.544,0,0,0-1.131.18,4.384,4.384,0,0,0-1,.477,3.773,3.773,0,0,0-.807.7,4.034,4.034,0,0,0-.566.837H757.9l-0.09-2h-0.936v9.738H757.9v-5.454a3.306,3.306,0,0,1,.3-1.377,3.831,3.831,0,0,1,.783-1.143,3.878,3.878,0,0,1,1.1-.774,2.928,2.928,0,0,1,1.26-.288,2.819,2.819,0,0,1,1.008.171,1.768,1.768,0,0,1,.765.567,2.815,2.815,0,0,1,.486,1.026,6,6,0,0,1,.171,1.548v5.724H764.8v-5.832A4.511,4.511,0,0,0,763.89,261.48Zm9.294,6.4a3,3,0,0,1-.783.972,3.649,3.649,0,0,1-1.17.63,4.5,4.5,0,0,1-1.431.225,2.527,2.527,0,0,1-1.566-.45,1.648,1.648,0,0,1-.594-1.4,2.025,2.025,0,0,1,.171-0.81,2.383,2.383,0,0,1,.486-0.72,2.8,2.8,0,0,1,.765-0.549,3.479,3.479,0,0,1,1.008-.315l3.4-.486v1.674A2.683,2.683,0,0,1,773.184,267.879Zm-4.023-6.273a4.413,4.413,0,0,1,1.827-.36,2.419,2.419,0,0,1,1.917.612,2.9,2.9,0,0,1,.513,1.89v0.432l-3.438.488a4.507,4.507,0,0,0-2.43,1.037,2.864,2.864,0,0,0-.918,2.248,2.521,2.521,0,0,0,.783,1.9,3.254,3.254,0,0,0,2.331.749,4.855,4.855,0,0,0,2.187-.469,3.507,3.507,0,0,0,1.467-1.316l0.09,1.623h0.972v-6.817a3.216,3.216,0,0,0-.855-2.542,3.869,3.869,0,0,0-2.583-.739,5.643,5.643,0,0,0-1.926.324,8.141,8.141,0,0,0-1.512.7V262.4a0.13,0.13,0,0,0,.063.135,0.153,0.153,0,0,0,.153-0.045A4.921,4.921,0,0,1,769.161,261.606Zm8.6-5.742v14.562h1.008V255.864h-1.008Zm3.231,19.035a4.48,4.48,0,0,0,.5.027,3.371,3.371,0,0,0,1.215-.2,2.6,2.6,0,0,0,.909-0.594,4.047,4.047,0,0,0,.7-0.972,11.827,11.827,0,0,0,.594-1.332l4.266-11.142h-1.116l-2.664,7.38-0.468,1.278-0.558-1.278-3.114-7.38h-1.116l4.248,9.792v0.054l-0.63,1.566a6,6,0,0,1-.5.972,2.6,2.6,0,0,1-.522.594,1.566,1.566,0,0,1-.567.3,2.421,2.421,0,0,1-.639.081,2.886,2.886,0,0,1-.828-0.108q-0.162-.054-0.162.108v0.738A1.665,1.665,0,0,0,780.987,274.9Zm14.481-5.571a2.145,2.145,0,0,1-.666.315,3.178,3.178,0,0,1-.9.117,1.315,1.315,0,0,1-1.134-.4,2.255,2.255,0,0,1-.288-1.287v-6.534h2.826v-0.846H792.48V258.24h-1.026v2.448h-1.89v0.846h1.89v6.624a2.353,2.353,0,0,0,.648,1.881,2.73,2.73,0,0,0,1.818.549,4.222,4.222,0,0,0,.927-0.1,2.236,2.236,0,0,0,.8-0.351V269.4q0-.2-0.18-0.072h0Zm2.07-8.64v9.738h1.044v-9.738h-1.044Zm-0.036-2.709a0.822,0.822,0,0,0,.594.225,0.831,0.831,0,0,0,.585-0.225,0.761,0.761,0,0,0,.243-0.585,0.84,0.84,0,0,0-1.422-.612,0.828,0.828,0,0,0-.234.612A0.775,0.775,0,0,0,797.5,257.979Zm10.62,11.133a4.015,4.015,0,0,1-.621.315,3.932,3.932,0,0,1-.684.207,3.359,3.359,0,0,1-.675.072,4.557,4.557,0,0,1-1.71-.3,3.346,3.346,0,0,1-1.242-.846,3.573,3.573,0,0,1-.756-1.305,5.242,5.242,0,0,1-.252-1.674,5.35,5.35,0,0,1,.243-1.629,3.872,3.872,0,0,1,.729-1.341,3.557,3.557,0,0,1,1.2-.918,3.758,3.758,0,0,1,1.647-.342,3.23,3.23,0,0,1,1.359.261,4.214,4.214,0,0,1,1.143.819,0.128,0.128,0,0,0,.126.072q0.09,0,.09-0.126v-1.044a5.019,5.019,0,0,0-1.242-.6,4.645,4.645,0,0,0-1.494-.243,5.5,5.5,0,0,0-2.043.36,4.273,4.273,0,0,0-2.529,2.619,6.239,6.239,0,0,0-.342,2.133,6,6,0,0,0,.351,2.133,4.305,4.305,0,0,0,1,1.566,4.186,4.186,0,0,0,1.557.963,6.052,6.052,0,0,0,2.043.324,5.369,5.369,0,0,0,1.557-.225,3.559,3.559,0,0,0,1.215-.6v-0.99q0-.126-0.054-0.126a0.22,0.22,0,0,0-.126.054A2.1,2.1,0,0,1,808.122,269.112Zm13.463-3.618h-5.4l2.394-6.624,0.306-1.026,0.306,1.026Zm-3.348-8.6-4.878,13.536h1.116l1.458-4.122h5.9l1.458,4.122h1.116l-4.878-13.536h-1.3Zm14.328,12.222a4.015,4.015,0,0,1-.621.315,3.906,3.906,0,0,1-.684.207,3.359,3.359,0,0,1-.675.072,4.557,4.557,0,0,1-1.71-.3,3.362,3.362,0,0,1-1.242-.846,3.573,3.573,0,0,1-.756-1.305,5.27,5.27,0,0,1-.252-1.674,5.35,5.35,0,0,1,.243-1.629,3.872,3.872,0,0,1,.729-1.341,3.567,3.567,0,0,1,1.2-.918,3.758,3.758,0,0,1,1.647-.342,3.23,3.23,0,0,1,1.359.261,4.2,4.2,0,0,1,1.143.819,0.129,0.129,0,0,0,.126.072q0.09,0,.09-0.126v-1.044a4.985,4.985,0,0,0-1.242-.6,4.64,4.64,0,0,0-1.494-.243,5.508,5.508,0,0,0-2.043.36,4.273,4.273,0,0,0-2.529,2.619,6.239,6.239,0,0,0-.342,2.133,6,6,0,0,0,.351,2.133,4.305,4.305,0,0,0,1,1.566,4.186,4.186,0,0,0,1.557.963,6.057,6.057,0,0,0,2.043.324,5.369,5.369,0,0,0,1.557-.225,3.541,3.541,0,0,0,1.215-.6v-0.99q0-.126-0.054-0.126a0.222,0.222,0,0,0-.126.054A2.06,2.06,0,0,1,832.565,269.112Zm8.514,0a4.015,4.015,0,0,1-.621.315,3.906,3.906,0,0,1-.684.207,3.359,3.359,0,0,1-.675.072,4.557,4.557,0,0,1-1.71-.3,3.362,3.362,0,0,1-1.242-.846,3.573,3.573,0,0,1-.756-1.305,5.27,5.27,0,0,1-.252-1.674,5.35,5.35,0,0,1,.243-1.629,3.872,3.872,0,0,1,.729-1.341,3.567,3.567,0,0,1,1.2-.918,3.758,3.758,0,0,1,1.647-.342,3.23,3.23,0,0,1,1.359.261,4.2,4.2,0,0,1,1.143.819,0.129,0.129,0,0,0,.126.072q0.09,0,.09-0.126v-1.044a4.985,4.985,0,0,0-1.242-.6,4.64,4.64,0,0,0-1.494-.243,5.508,5.508,0,0,0-2.043.36,4.273,4.273,0,0,0-2.529,2.619,6.239,6.239,0,0,0-.342,2.133,6,6,0,0,0,.351,2.133,4.305,4.305,0,0,0,1,1.566,4.186,4.186,0,0,0,1.557.963,6.057,6.057,0,0,0,2.043.324,5.369,5.369,0,0,0,1.557-.225,3.541,3.541,0,0,0,1.215-.6v-0.99q0-.126-0.054-0.126a0.222,0.222,0,0,0-.126.054A2.06,2.06,0,0,1,841.079,269.112Zm7.812,1.089a3.8,3.8,0,0,0,1.368-1.053,4.506,4.506,0,0,0,.81-1.575,6.9,6.9,0,0,0,.27-1.971,7.16,7.16,0,0,0-.279-2.052,4.615,4.615,0,0,0-.837-1.62,3.814,3.814,0,0,0-1.377-1.062,4.489,4.489,0,0,0-1.9-.378,4.55,4.55,0,0,0-1.908.378,3.715,3.715,0,0,0-1.377,1.062,4.7,4.7,0,0,0-.828,1.62,7.16,7.16,0,0,0-.279,2.052,6.9,6.9,0,0,0,.27,1.971,4.506,4.506,0,0,0,.81,1.575A3.8,3.8,0,0,0,845,270.2,5.076,5.076,0,0,0,848.891,270.2Zm-4.437-1.584a4.59,4.59,0,0,1-.873-2.979,4.981,4.981,0,0,1,.873-3.123,3.315,3.315,0,0,1,4.977,0,4.945,4.945,0,0,1,.882,3.123,4.52,4.52,0,0,1-.882,2.97,3.1,3.1,0,0,1-2.484,1.08A3.032,3.032,0,0,1,844.454,268.617Zm9.207-.234a3.216,3.216,0,0,0,.72,1.269,2.639,2.639,0,0,0,1.116.72,4.535,4.535,0,0,0,1.44.216,3.66,3.66,0,0,0,2.079-.594,3.743,3.743,0,0,0,1.323-1.476h0.018l0.09,1.908h0.936l-0.018-9.738h-1.026v5.454a3.467,3.467,0,0,1-.279,1.386,3.764,3.764,0,0,1-.747,1.134,3.716,3.716,0,0,1-1.062.774,2.9,2.9,0,0,1-2.268.108,2.125,2.125,0,0,1-.819-0.567,2.689,2.689,0,0,1-.549-1.026,5.313,5.313,0,0,1-.2-1.557v-5.706h-1.008v5.832A6.111,6.111,0,0,0,853.661,268.383Zm17.651-6.9a3.18,3.18,0,0,0-2.468-.99,3.545,3.545,0,0,0-1.132.18,4.357,4.357,0,0,0-1,.477,3.8,3.8,0,0,0-.808.7,4.028,4.028,0,0,0-.565.837h-0.018l-0.09-2H864.3v9.738h1.026v-5.454a3.306,3.306,0,0,1,.3-1.377,3.831,3.831,0,0,1,.783-1.143,3.878,3.878,0,0,1,1.1-.774,2.928,2.928,0,0,1,1.26-.288,2.819,2.819,0,0,1,1.008.171,1.768,1.768,0,0,1,.765.567,2.815,2.815,0,0,1,.486,1.026,6,6,0,0,1,.171,1.548v5.724h1.026v-5.832A4.506,4.506,0,0,0,871.312,261.48Zm8.143,7.848a2.145,2.145,0,0,1-.666.315,3.178,3.178,0,0,1-.9.117,1.315,1.315,0,0,1-1.134-.4,2.255,2.255,0,0,1-.288-1.287v-6.534h2.826v-0.846h-2.826V258.24h-1.026v2.448h-1.89v0.846h1.89v6.624a2.353,2.353,0,0,0,.648,1.881,2.73,2.73,0,0,0,1.818.549,4.222,4.222,0,0,0,.927-0.1,2.236,2.236,0,0,0,.8-0.351V269.4q0-.2-0.18-0.072h0Zm2.07-8.64v9.738h1.044v-9.738h-1.044Zm-0.036-2.709a0.822,0.822,0,0,0,.594.225,0.831,0.831,0,0,0,.585-0.225,0.761,0.761,0,0,0,.243-0.585,0.84,0.84,0,0,0-1.422-.612,0.828,0.828,0,0,0-.234.612A0.775,0.775,0,0,0,881.489,257.979Zm11.3,3.5a3.184,3.184,0,0,0-2.469-.99,3.544,3.544,0,0,0-1.131.18,4.357,4.357,0,0,0-1,.477,3.755,3.755,0,0,0-.808.7,4.034,4.034,0,0,0-.566.837H886.8l-0.089-2h-0.936v9.738H886.8v-5.454a3.306,3.306,0,0,1,.3-1.377,3.851,3.851,0,0,1,1.881-1.917,2.925,2.925,0,0,1,1.26-.288,2.827,2.827,0,0,1,1.008.171,1.78,1.78,0,0,1,.765.567,2.848,2.848,0,0,1,.486,1.026,6.042,6.042,0,0,1,.171,1.548v5.724h1.026v-5.832A4.511,4.511,0,0,0,892.786,261.48Zm10.194,4.98a2.738,2.738,0,0,1-.252,1.172,2.881,2.881,0,0,1-.693.938,3.1,3.1,0,0,1-1.044.614,3.842,3.842,0,0,1-1.3.216,3.241,3.241,0,0,1-1.2-.216,2.382,2.382,0,0,1-.954-0.7,3.369,3.369,0,0,1-.63-1.218,6.115,6.115,0,0,1-.225-1.768,5.9,5.9,0,0,1,.243-1.777,3.705,3.705,0,0,1,.675-1.28,2.911,2.911,0,0,1,1.017-.785,2.977,2.977,0,0,1,1.269-.271,3.065,3.065,0,0,1,1.242.253,2.828,2.828,0,0,1,.981.7,3.491,3.491,0,0,1,.639,1.029,3.227,3.227,0,0,1,.234,1.226v1.859Zm0.036,3.228a5.036,5.036,0,0,1-.882,3.321,3.6,3.6,0,0,1-2.862,1.017,4.456,4.456,0,0,1-1.485-.243,5.02,5.02,0,0,1-1.377-.765q-0.144-.108-0.144.054v1.062a6.739,6.739,0,0,0,1.323.5,6.446,6.446,0,0,0,1.683.2,7.328,7.328,0,0,0,2.169-.279,3.276,3.276,0,0,0,1.458-.891,3.693,3.693,0,0,0,.828-1.584,9.291,9.291,0,0,0,.261-2.376v-9.018H902.98l-0.054,1.62H902.89a4.491,4.491,0,0,0-.5-0.711,3.282,3.282,0,0,0-.666-0.585,2.97,2.97,0,0,0-.873-0.387,4.361,4.361,0,0,0-1.143-.135,4.018,4.018,0,0,0-1.638.333,3.679,3.679,0,0,0-1.305.963,4.48,4.48,0,0,0-.855,1.548,6.653,6.653,0,0,0-.306,2.106,6.911,6.911,0,0,0,.306,2.178,4.177,4.177,0,0,0,.846,1.512,3.37,3.37,0,0,0,1.269.882,4.248,4.248,0,0,0,1.575.288,4.614,4.614,0,0,0,1.935-.414,3.166,3.166,0,0,0,1.413-1.224h0.072v1.026Zm9.189,0.567a6.514,6.514,0,0,0,2.2.351,6.263,6.263,0,0,0,1.908-.27,4.229,4.229,0,0,0,1.44-.765,3.387,3.387,0,0,0,.918-1.2A3.737,3.737,0,0,0,919,266.79a3.143,3.143,0,0,0-.819-2.142,6.766,6.766,0,0,0-2.475-1.566l-1.3-.522q-0.486-.2-0.954-0.441a4.419,4.419,0,0,1-.837-0.558,2.473,2.473,0,0,1-.585-0.72,1.979,1.979,0,0,1-.216-0.945,2.014,2.014,0,0,1,.252-1.017,2.2,2.2,0,0,1,.693-0.738,3.31,3.31,0,0,1,1.044-.45,5.218,5.218,0,0,1,1.287-.153,3.987,3.987,0,0,1,1.683.351,5.9,5.9,0,0,1,1.377.873,0.121,0.121,0,0,0,.135.045,0.113,0.113,0,0,0,.063-0.117V257.7a4.867,4.867,0,0,0-1.566-.756,6.5,6.5,0,0,0-3.42-.045,4.111,4.111,0,0,0-1.341.612,2.833,2.833,0,0,0-1.215,2.421,3.191,3.191,0,0,0,.225,1.251,3,3,0,0,0,.621.936,4.106,4.106,0,0,0,.945.711,11.707,11.707,0,0,0,1.2.576l1.314,0.558q0.594,0.252,1.107.513a4.266,4.266,0,0,1,.891.594,2.509,2.509,0,0,1,.594.765,2.27,2.27,0,0,1,.216,1.026,2.486,2.486,0,0,1-.936,2.07,3.992,3.992,0,0,1-2.538.738,5.159,5.159,0,0,1-2.07-.405,4.025,4.025,0,0,1-1.512-1.089,0.127,0.127,0,0,0-.144-0.063,0.112,0.112,0,0,0-.072.117v1.08A4.007,4.007,0,0,0,912.205,270.255Zm9.054,4.644a4.48,4.48,0,0,0,.5.027,3.371,3.371,0,0,0,1.215-.2,2.6,2.6,0,0,0,.909-0.594,4.047,4.047,0,0,0,.7-0.972,11.827,11.827,0,0,0,.594-1.332l4.266-11.142h-1.116l-2.664,7.38-0.468,1.278-0.558-1.278-3.114-7.38H920.4l4.248,9.792v0.054l-0.63,1.566a6,6,0,0,1-.5.972,2.6,2.6,0,0,1-.522.594,1.566,1.566,0,0,1-.567.3,2.421,2.421,0,0,1-.639.081,2.886,2.886,0,0,1-.828-0.108q-0.162-.054-0.162.108v0.738A1.665,1.665,0,0,0,921.259,274.9Zm9.333-6.3a0.118,0.118,0,0,0-.054.117v1.008a5.191,5.191,0,0,0,1.647.648,8.43,8.43,0,0,0,1.845.216,4.327,4.327,0,0,0,2.6-.7,2.289,2.289,0,0,0,.963-1.962,2.322,2.322,0,0,0-.189-0.972,2.3,2.3,0,0,0-.54-0.738,3.611,3.611,0,0,0-.864-0.576q-0.513-.252-1.143-0.5l-1.206-.45a3.9,3.9,0,0,1-1.2-.666,1.38,1.38,0,0,1-.5-1.116,1.212,1.212,0,0,1,.171-0.63,1.635,1.635,0,0,1,.459-0.5,2.135,2.135,0,0,1,.666-0.315,2.937,2.937,0,0,1,.81-0.108,4.653,4.653,0,0,1,1.611.261,4.22,4.22,0,0,1,1.269.729,0.139,0.139,0,0,0,.135.054,0.112,0.112,0,0,0,.063-0.126v-0.99a4.472,4.472,0,0,0-1.395-.6,6.542,6.542,0,0,0-1.575-.189,4.439,4.439,0,0,0-1.422.207,3.317,3.317,0,0,0-1.026.54,2.273,2.273,0,0,0-.63.774,2.044,2.044,0,0,0-.216.909,2.2,2.2,0,0,0,.63,1.665,5.653,5.653,0,0,0,1.962,1.089l1.152,0.45a4.293,4.293,0,0,1,1.368.738,1.279,1.279,0,0,1,.5.99,1.73,1.73,0,0,1-.189.846,1.525,1.525,0,0,1-.531.558,2.456,2.456,0,0,1-.819.315,5.443,5.443,0,0,1-4.239-.945A0.118,0.118,0,0,0,930.592,268.6Zm13.536,0.729a2.145,2.145,0,0,1-.666.315,3.178,3.178,0,0,1-.9.117,1.315,1.315,0,0,1-1.134-.4,2.255,2.255,0,0,1-.288-1.287v-6.534h2.826v-0.846H941.14V258.24h-1.026v2.448h-1.89v0.846h1.89v6.624a2.353,2.353,0,0,0,.648,1.881,2.73,2.73,0,0,0,1.818.549,4.222,4.222,0,0,0,.927-0.1,2.236,2.236,0,0,0,.8-0.351V269.4q0-.2-0.18-0.072h0Zm3.879-8.46a4.258,4.258,0,0,0-1.44,1.053,4.925,4.925,0,0,0-.945,1.611,6.38,6.38,0,0,0-.018,4.068,4.545,4.545,0,0,0,.936,1.584,4.218,4.218,0,0,0,1.485,1.035,5.019,5.019,0,0,0,1.971.369,8.7,8.7,0,0,0,1.908-.2,4.2,4.2,0,0,0,1.638-.774v-0.972q0-.234-0.2-0.072a4.353,4.353,0,0,1-1.485.792,5.515,5.515,0,0,1-1.665.27,3.482,3.482,0,0,1-2.736-1.008,4.3,4.3,0,0,1-.954-2.826v-0.378h7.434v-0.306a5.045,5.045,0,0,0-1.053-3.411,3.8,3.8,0,0,0-3.033-1.215A4.431,4.431,0,0,0,948.007,260.868Zm-1.485,3.8a5.241,5.241,0,0,1,.387-1.4,3.468,3.468,0,0,1,.711-1.062,3.043,3.043,0,0,1,2.2-.9,2.758,2.758,0,0,1,2.187.891,3.623,3.623,0,0,1,.783,2.475h-6.264Zm16.74,5.76V265.08a3.836,3.836,0,0,1,.261-1.395,4.137,4.137,0,0,1,.684-1.179,3.518,3.518,0,0,1,.963-0.81,2.2,2.2,0,0,1,1.1-.306,1.854,1.854,0,0,1,1.548.747,4.35,4.35,0,0,1,.576,2.583v5.706H969.4v-5.814a4.881,4.881,0,0,0-.819-3.132,2.773,2.773,0,0,0-2.259-.99,3.053,3.053,0,0,0-1.908.666,4.33,4.33,0,0,0-1.332,1.746,3.224,3.224,0,0,0-1.044-1.827,2.892,2.892,0,0,0-1.854-.585,2.862,2.862,0,0,0-.99.171,3.346,3.346,0,0,0-.864.468,3.79,3.79,0,0,0-.7.684,4.015,4.015,0,0,0-.5.819l-0.09-1.944h-0.9v9.738h1.008V265.08a3.836,3.836,0,0,1,.261-1.395,4.262,4.262,0,0,1,.675-1.179,3.4,3.4,0,0,1,.954-0.81,2.2,2.2,0,0,1,1.1-.306,1.854,1.854,0,0,1,1.548.747,4.35,4.35,0,0,1,.576,2.583v5.706h1.008Z"
        transform="translate(-731.563 -206.719)"/>
  <path id="분석회계시스템" class="cls-2"
        d="M754.581,231.176h14.2v-4.16h-35.04v4.16H749.5v6.2h5.08v-6.2Zm9.92,9.64h-20.36v-6.48h-4.88v10.68H764.5v-4.2Zm-6.12-20.2h-14.04v-3.64h14.04v3.64Zm4.96,3.92v-15.6h-5v4.4h-13.88v-4.4h-5.04v15.6h23.92Zm32.32-4.68v9.8h4.96V208.5h-4.96v7.28h-6.88v4.08h6.88Zm-16.28-10.44a22.351,22.351,0,0,1-.34,5.54,14.169,14.169,0,0,1-1.74,4.56,16.4,16.4,0,0,1-3.2,3.8,26.485,26.485,0,0,1-4.68,3.26l3.28,3a25.13,25.13,0,0,0,5.14-3.56,19.93,19.93,0,0,0,3.82-4.68,22,22,0,0,0,3.86,4.18,23.952,23.952,0,0,0,5.18,3.26l3.08-3.28a31.271,31.271,0,0,1-3.22-1.84,22.088,22.088,0,0,1-2.68-2.06,19,19,0,0,1-2.24-2.4,22.534,22.534,0,0,1-1.9-2.86,26.1,26.1,0,0,0,.8-6.92h-5.16Zm21.24,36.24v-14.44H776.3v4.08h19.36v10.36h4.96Zm36.56-37.16h-4.92v37.08h4.92V208.5Zm-11.24,22a5.751,5.751,0,0,0,1.08-6.62,5.756,5.756,0,0,0-1.78-2.04,9.01,9.01,0,0,0-2.88-1.34,14.394,14.394,0,0,0-3.9-.48,14.549,14.549,0,0,0-3.94.48,8.99,8.99,0,0,0-2.88,1.34,5.746,5.746,0,0,0-1.78,2.04,5.527,5.527,0,0,0-.6,2.54,5.6,5.6,0,0,0,1.76,4.16,8.921,8.921,0,0,0,5.12,2.2v3.08q-1.041.041-2,.04h-8.12v4.08h6.36q2.16,0,4.58-.08t4.86-.22q2.439-.139,4.8-0.36t4.48-.54v-3.96q-2.321.321-4.88,0.52t-5.16.32v-2.92A8.872,8.872,0,0,0,825.941,230.5Zm3.92-11.44v-3.84H806.9v3.84h22.96Zm-4.84-5.6v-3.92h-13.6v3.92h13.6Zm-3.26,15.02a5.274,5.274,0,0,1-3.3.78,5.355,5.355,0,0,1-3.34-.78,2.64,2.64,0,0,1,0-4.04,5.159,5.159,0,0,1,3.34-.82,5.082,5.082,0,0,1,3.3.82A2.64,2.64,0,0,1,821.761,228.476Zm36.18-13.76q0.12-1.539.2-3.14-2.08.041-4.32,0.06t-4.64.02h-5.6v4.08h6.32q1.359,0,2.96-.08a27.051,27.051,0,0,1-.76,5.24,20.861,20.861,0,0,1-1.96,5.02,23.233,23.233,0,0,1-3.42,4.68,26.245,26.245,0,0,1-5.18,4.22l3.48,3.16a27.451,27.451,0,0,0,7.52-7.14,29.006,29.006,0,0,0,4.16-8.98h4.52v4.2h-5v4.12h4.96v14.48h4.6V208.9h-4.6v8.84h-3.6Q857.821,216.257,857.941,214.716Zm15.2-6.22H868.5v37.08h4.64V208.5Zm4.92,28.68a29.082,29.082,0,0,0,6.14-5.92,25.809,25.809,0,0,0,4.06-7.8,29.474,29.474,0,0,0,10.36,12.88l1.8-1.72a27.614,27.614,0,0,1-6.86-6.28,28.613,28.613,0,0,1-4.46-8,36.237,36.237,0,0,0,.72-9.2h-2.44a33.311,33.311,0,0,1-.5,8.6,26.174,26.174,0,0,1-2.32,6.78,22.026,22.026,0,0,1-3.7,5.22,27.529,27.529,0,0,1-4.64,3.88Zm29.08,8v-36.36h-2.32v36.36h2.32Zm9.52-14.92a25.847,25.847,0,0,0,7.98-4.56,18.751,18.751,0,0,0,5.1-6.8,20.492,20.492,0,0,0,2.5,3.68,24.464,24.464,0,0,0,3.2,3.14,26.986,26.986,0,0,0,3.66,2.52,20.261,20.261,0,0,0,3.92,1.74l1.28-2.04a21.426,21.426,0,0,1-4.06-1.68,22.56,22.56,0,0,1-3.84-2.6,21.745,21.745,0,0,1-3.3-3.44,16.648,16.648,0,0,1-2.36-4.2,21.017,21.017,0,0,0,.6-5.4h-2.52a16.968,16.968,0,0,1-.62,5.64,15.645,15.645,0,0,1-2.5,5.04,17.931,17.931,0,0,1-4.36,4.12,21.836,21.836,0,0,1-6.16,2.84Zm-3.96,9.24h33.76v-2.04H912.7v2.04Zm45.339-11.542q1.661-.1,3.26-0.327t3.04-.51a21.865,21.865,0,0,0,2.56-.653v-1.848a45.808,45.808,0,0,1-11.6,1.44h-2.48V220.1h9.84v-2h-9.84v-5.68h10.84v-2H950.74v17.64h4.08Q956.38,228.056,958.04,227.954Zm19.14-19.138V230.3h2.2v-21.48h-2.2Zm-20.6,23.96v11.88h22.8v-11.88h-22.8Zm2.24,9.88v-7.88h18.32v7.88H958.82Zm6.8-22.8h4.72V230.3h2.16v-21.08h-2.16v8.64h-4.72v2Z"
        transform="translate(-731.563 -206.719)"/>
</svg>
