<svg xmlns="http://www.w3.org/2000/svg" width="140" height="20" viewBox="0 0 140 20">
  <metadata><?xpacket begin="﻿" id="W5M0MpCehiHzreSzNTczkc9d"?>
    <x:xmpmeta xmlns:x="adobe:ns:meta/" x:xmptk="Adobe XMP Core 5.6-c140 79.160451, 2017/05/06-01:08:21        ">
      <rdf:RDF xmlns:rdf="http://www.w3.org/1999/02/22-rdf-syntax-ns#">
        <rdf:Description rdf:about=""/>
      </rdf:RDF>
    </x:xmpmeta>


    <?xpacket end="w"?>
  </metadata>
  <defs>
    <style>
      .cls-1 {
      fill: #fff;
      fill-rule: evenodd;
      }
    </style>
  </defs>
  <path id="E_SYS" data-name="E&amp;SYS" class="cls-1"
        d="M229.359,62.042V44.636h-0.845V62.042h0.845Zm-6.118-7.963a5.826,5.826,0,0,1-.682,1.7,3.384,3.384,0,0,1-1.095,1.114,2.933,2.933,0,0,1-2.969,0,3.406,3.406,0,0,1-1.085-1.114,5.582,5.582,0,0,1-.672-1.7,9.593,9.593,0,0,1-.231-2.181,9.723,9.723,0,0,1,.231-2.19,5.71,5.71,0,0,1,.672-1.719,3.288,3.288,0,0,1,1.085-1.114,2.995,2.995,0,0,1,2.969,0,3.269,3.269,0,0,1,1.095,1.114,5.961,5.961,0,0,1,.682,1.719,9.373,9.373,0,0,1,.24,2.19A9.248,9.248,0,0,1,223.241,54.079Zm0.73-4.88a6.088,6.088,0,0,0-.913-1.94,3.729,3.729,0,0,0-1.364-1.162,3.848,3.848,0,0,0-1.71-.384,3.8,3.8,0,0,0-1.69.384,3.721,3.721,0,0,0-1.364,1.162,6.046,6.046,0,0,0-.913,1.94,9.756,9.756,0,0,0-.336,2.7,9.65,9.65,0,0,0,.336,2.69,5.933,5.933,0,0,0,.913,1.921,3.842,3.842,0,0,0,1.364,1.162,3.725,3.725,0,0,0,1.69.394,3.769,3.769,0,0,0,1.71-.394,3.85,3.85,0,0,0,1.364-1.162,5.974,5.974,0,0,0,.913-1.921,9.65,9.65,0,0,0,.336-2.69A9.756,9.756,0,0,0,223.971,49.2Zm15.369,1.767a3.1,3.1,0,0,1-.673,1.066,3.017,3.017,0,0,1-1.008.682,3.264,3.264,0,0,1-1.268.24,3.134,3.134,0,0,1-1.239-.24,2.837,2.837,0,0,1-.98-0.682,3.118,3.118,0,0,1-.644-1.066,3.988,3.988,0,0,1-.23-1.393,4.071,4.071,0,0,1,.23-1.4,3.1,3.1,0,0,1,.644-1.076,2.957,2.957,0,0,1,.98-0.692,3.036,3.036,0,0,1,1.239-.25,3.112,3.112,0,0,1,2.276.941,3.089,3.089,0,0,1,.673,1.076,3.933,3.933,0,0,1,.24,1.4A3.853,3.853,0,0,1,239.34,50.966Zm0.749-3.1a3.827,3.827,0,0,0-.836-1.316,3.738,3.738,0,0,0-1.268-.845,4.184,4.184,0,0,0-1.594-.3,3.984,3.984,0,0,0-1.556.3,3.584,3.584,0,0,0-1.23.845,3.854,3.854,0,0,0-.807,1.316,5.248,5.248,0,0,0,0,3.429,3.762,3.762,0,0,0,.807,1.3,3.529,3.529,0,0,0,1.23.826,4.1,4.1,0,0,0,1.556.288,4.305,4.305,0,0,0,1.594-.288,3.684,3.684,0,0,0,1.268-.826,3.738,3.738,0,0,0,.836-1.3A5.082,5.082,0,0,0,240.089,47.864Zm6.042-3.227v4.726h-3.112V44.828h-0.807V56.97h0.807V50.15h3.112v7.2h0.807V44.636h-0.807Zm-9.068,16.291V56.451h-0.826V61.7h11.027V60.927h-10.2Zm12.6-2.824a14.793,14.793,0,0,0,3.093-2.987,12.571,12.571,0,0,0,1.978-3.833,11.951,11.951,0,0,0,.951,1.844,17.349,17.349,0,0,0,1.239,1.729,15.553,15.553,0,0,0,1.422,1.527,13.789,13.789,0,0,0,1.518,1.239l0.653-.615a10.991,10.991,0,0,1-1.815-1.412,15.232,15.232,0,0,1-1.566-1.739,14.634,14.634,0,0,1-1.249-1.9,10.185,10.185,0,0,1-.826-1.921,16.824,16.824,0,0,0,.307-2.056,18.65,18.65,0,0,0,.058-2.267h-0.884a15.984,15.984,0,0,1-.269,4.1,12.2,12.2,0,0,1-1.143,3.237,11.015,11.015,0,0,1-1.825,2.517,15.281,15.281,0,0,1-2.3,1.94Zm13.966,3.938V44.636h-0.845V62.042h0.845Zm4.611-7.147a12.239,12.239,0,0,0,3.861-2.238,8.971,8.971,0,0,0,2.459-3.372,9.356,9.356,0,0,0,2.517,3.276,12.365,12.365,0,0,0,3.862,2.181l0.537-.749a10.929,10.929,0,0,1-2.372-1.037,10.746,10.746,0,0,1-1.892-1.412,8.662,8.662,0,0,1-1.393-1.671,7.085,7.085,0,0,1-.836-1.815,10.173,10.173,0,0,0,.269-2.517h-0.922a7.3,7.3,0,0,1-.269,2.69,7.906,7.906,0,0,1-1.22,2.449,8.837,8.837,0,0,1-2.123,2.036,11.01,11.01,0,0,1-3,1.431Zm-1.787,4.38h16.1V58.526h-16.1v0.749Zm-111.005-.941h-7.48V52.945h6.968V50.813h-6.968V46.8h7.48V44.645H145.41v15.84h10.041V58.334Zm7.807-5.594L167.09,57.1v0.041a4.057,4.057,0,0,1-3.32,1.66,2.923,2.923,0,0,1-1.086-.195,2.774,2.774,0,0,1-.86-0.533,2.378,2.378,0,0,1-.574-0.8,2.463,2.463,0,0,1-.205-1.014,3.177,3.177,0,0,1,.154-1.014,3.567,3.567,0,0,1,.43-0.871,5.156,5.156,0,0,1,.687-0.809q0.41-.4.922-0.83h0.02Zm0.246-2.664a4.394,4.394,0,0,1-.717-1.137,3.214,3.214,0,0,1-.246-1.26,1.409,1.409,0,0,1,.328-1,1.151,1.151,0,0,1,.881-0.348,1.484,1.484,0,0,1,1.066.307,1.2,1.2,0,0,1,.307.881,2.234,2.234,0,0,1-.43,1.414,7.215,7.215,0,0,1-1.168,1.148H163.5Zm1.5,1.455q0.43-.348.881-0.758a5.926,5.926,0,0,0,.82-0.922,5.35,5.35,0,0,0,.615-1.117,3.472,3.472,0,0,0,.246-1.322,2.685,2.685,0,0,0-.994-2.162,4.351,4.351,0,0,0-2.859-.83,3.572,3.572,0,0,0-2.654.922,3.317,3.317,0,0,0-.912,2.439,3.6,3.6,0,0,0,.144,1.035,4.629,4.629,0,0,0,.379.912,5.9,5.9,0,0,0,.533.809q0.3,0.38.6,0.707v0.041a13.8,13.8,0,0,0-2.531,2.531,4.326,4.326,0,0,0-.87,2.592,3.919,3.919,0,0,0,.461,1.988,4.7,4.7,0,0,0,1.239,1.394,5.5,5.5,0,0,0,1.742.82,8.4,8.4,0,0,0,2.152.246,6,6,0,0,0,2.6-.563,5.372,5.372,0,0,0,1.906-1.445h0.041l1.312,1.6h3.278L169.9,56.981a8.9,8.9,0,0,0,.666-2.357,9.968,9.968,0,0,0-.072-2.992h-2.336q-0.246,0-.144.266a4.782,4.782,0,0,1,.39,1.629,4.36,4.36,0,0,1-.2,1.691h-0.041L165,51.572V51.531Zm19.693-3.248a0.179,0.179,0,0,0,.1-0.174V45.731a4.551,4.551,0,0,0-.973-0.645,5.672,5.672,0,0,0-1.076-.4,7.907,7.907,0,0,0-1.106-.2,9.522,9.522,0,0,0-1.046-.061,7.6,7.6,0,0,0-2.069.266,4.943,4.943,0,0,0-1.619.768,3.4,3.4,0,0,0-1.045,1.26,3.983,3.983,0,0,0-.369,1.762,4.3,4.3,0,0,0,.266,1.578,4.022,4.022,0,0,0,.728,1.2,5.126,5.126,0,0,0,1.106.932,10.045,10.045,0,0,0,1.4.738l1.414,0.615a5.946,5.946,0,0,1,1.783,1.117,2.027,2.027,0,0,1,.615,1.506,2.146,2.146,0,0,1-.666,1.732,3.375,3.375,0,0,1-2.183.563,5.722,5.722,0,0,1-1.322-.143,4.794,4.794,0,0,1-1.116-.41,4.99,4.99,0,0,1-.964-0.656,8.987,8.987,0,0,1-.881-0.881,0.147,0.147,0,0,0-.184-0.031,0.179,0.179,0,0,0-.1.174v2.664a5.434,5.434,0,0,0,2.05,1.148,8.575,8.575,0,0,0,2.5.348,8.843,8.843,0,0,0,2.285-.277,5.034,5.034,0,0,0,1.782-.85,3.841,3.841,0,0,0,1.158-1.455,4.868,4.868,0,0,0,.41-2.07,3.858,3.858,0,0,0-1.014-2.705,8.487,8.487,0,0,0-2.88-1.926l-1.413-.615a5.213,5.213,0,0,1-1.548-.932,1.846,1.846,0,0,1-.563-1.424q0-1.824,2.52-1.824a4.895,4.895,0,0,1,2.08.441,6.264,6.264,0,0,1,1.752,1.219A0.147,0.147,0,0,0,184.693,48.283Zm7.992,2.982h-0.041l-3.771-6.619h-2.746l5.2,8.975v6.865h2.6V53.4l5.184-8.75h-2.746Zm16.291-2.982a0.18,0.18,0,0,0,.1-0.174V45.731a4.557,4.557,0,0,0-.974-0.645,5.672,5.672,0,0,0-1.076-.4,7.854,7.854,0,0,0-1.106-.2,9.5,9.5,0,0,0-1.045-.061,7.6,7.6,0,0,0-2.07.266,4.952,4.952,0,0,0-1.619.768,3.4,3.4,0,0,0-1.045,1.26,3.983,3.983,0,0,0-.369,1.762,4.28,4.28,0,0,0,.267,1.578,4.019,4.019,0,0,0,.727,1.2,5.108,5.108,0,0,0,1.107.932,10.032,10.032,0,0,0,1.4.738l1.414,0.615a5.946,5.946,0,0,1,1.783,1.117,2.027,2.027,0,0,1,.615,1.506,2.143,2.143,0,0,1-.666,1.732,3.373,3.373,0,0,1-2.183.563,5.713,5.713,0,0,1-1.321-.143,4.8,4.8,0,0,1-1.117-.41,4.953,4.953,0,0,1-.963-0.656,8.879,8.879,0,0,1-.881-0.881,0.148,0.148,0,0,0-.185-0.031,0.18,0.18,0,0,0-.1.174v2.664a5.437,5.437,0,0,0,2.049,1.148,8.575,8.575,0,0,0,2.5.348,8.843,8.843,0,0,0,2.285-.277,5.03,5.03,0,0,0,1.783-.85,3.848,3.848,0,0,0,1.157-1.455,4.853,4.853,0,0,0,.41-2.07,3.858,3.858,0,0,0-1.014-2.705,8.472,8.472,0,0,0-2.879-1.926l-1.414-.615A5.193,5.193,0,0,1,203,49.84a1.846,1.846,0,0,1-.564-1.424q0-1.824,2.521-1.824a4.9,4.9,0,0,1,2.08.441,6.293,6.293,0,0,1,1.752,1.219A0.146,0.146,0,0,0,208.976,48.283Z"
        transform="translate(-143.984 -43.219)"/>
</svg>
