<svg xmlns="http://www.w3.org/2000/svg" width="110" height="16" viewBox="0 0 110 16">
  <metadata><?xpacket begin="﻿" id="W5M0MpCehiHzreSzNTczkc9d"?>
    <x:xmpmeta xmlns:x="adobe:ns:meta/" x:xmptk="Adobe XMP Core 5.6-c140 79.160451, 2017/05/06-01:08:21        ">
      <rdf:RDF xmlns:rdf="http://www.w3.org/1999/02/22-rdf-syntax-ns#">
        <rdf:Description rdf:about=""/>
      </rdf:RDF>
    </x:xmpmeta>


    <?xpacket end="w"?>
  </metadata>
  <defs>
    <style>
      .cls-1 {
      fill: #eaecf0;
      fill-rule: evenodd;
      }
    </style>
  </defs>
  <path id="이앤시스" class="cls-1"
        d="M303.848,171.36h-6.1v-4.8h5.664v-1.184h-5.664v-3.712h6.1v-1.2h-7.5v12.128h7.5V171.36Zm6.48-6.544q-0.273-.319-0.472-0.584a4.064,4.064,0,0,1-.336-0.512,2.02,2.02,0,0,1-.2-0.52,2.564,2.564,0,0,1-.064-0.592,1.3,1.3,0,0,1,.368-0.96,1.279,1.279,0,0,1,.944-0.368,1.473,1.473,0,0,1,1.1.352,1.205,1.205,0,0,1,.336.864,1.972,1.972,0,0,1-.12.712,2.208,2.208,0,0,1-.336.584,3.452,3.452,0,0,1-.52.52q-0.3.248-.672,0.5h-0.032Zm4.24,2.768a3.143,3.143,0,0,1-.336,1.424H314.2l-2.992-3.344v-0.032q0.384-.3.768-0.64a5.243,5.243,0,0,0,.688-0.728,3.565,3.565,0,0,0,.488-0.848,2.66,2.66,0,0,0,.184-1,1.971,1.971,0,0,0-.7-1.576,3.107,3.107,0,0,0-2.064-.6,3,3,0,0,0-1.12.192,2.359,2.359,0,0,0-.808.52,2.147,2.147,0,0,0-.5.776,2.9,2.9,0,0,0-.064,1.744,3.042,3.042,0,0,0,.3.68,5.362,5.362,0,0,0,.44.64q0.248,0.312.536,0.648V165.5q-0.576.448-1.08,0.912a7.892,7.892,0,0,0-.88.944,4.49,4.49,0,0,0-.6,1,2.731,2.731,0,0,0-.224,1.1,3.428,3.428,0,0,0,.328,1.552,3.034,3.034,0,0,0,.9,1.088,3.713,3.713,0,0,0,.664.384,4.256,4.256,0,0,0,.68.232,4.529,4.529,0,0,0,.752.12q0.4,0.032.864,0.032a4.581,4.581,0,0,0,2.088-.464,4.84,4.84,0,0,0,1.576-1.264h0.032l1.264,1.408H317.5l-2.32-2.464v-0.032a5.959,5.959,0,0,0,.608-1.872,7.345,7.345,0,0,0-.016-2.208h-1.28c-0.139,0-.176.064-0.112,0.192A5.162,5.162,0,0,1,314.568,167.584Zm-4.352-1.216,3.344,3.776v0.032a3.805,3.805,0,0,1-1.256,1.112,3.486,3.486,0,0,1-1.7.408,3.135,3.135,0,0,1-.944-0.145,2.557,2.557,0,0,1-.824-0.425,2.178,2.178,0,0,1-.584-0.7,2.033,2.033,0,0,1-.224-0.979,2.5,2.5,0,0,1,.152-0.9,2.923,2.923,0,0,1,.432-0.763,4.912,4.912,0,0,1,.68-0.706q0.4-.345.9-0.713h0.032Zm11.016,6.112a6.9,6.9,0,0,0,1.9.24,6.63,6.63,0,0,0,1.72-.208,3.747,3.747,0,0,0,1.328-.632,2.868,2.868,0,0,0,.856-1.072,3.619,3.619,0,0,0,.3-1.544,2.853,2.853,0,0,0-.744-2.008,6.674,6.674,0,0,0-2.216-1.464l-1.152-.512a5.305,5.305,0,0,1-.752-0.336,2.768,2.768,0,0,1-.608-0.44,1.825,1.825,0,0,1-.4-0.568,1.734,1.734,0,0,1-.144-0.72,1.415,1.415,0,0,1,.64-1.288,3.288,3.288,0,0,1,1.776-.408,4.584,4.584,0,0,1,1.5.224,5.241,5.241,0,0,1,1.3.688,0.131,0.131,0,0,0,.136.056,0.153,0.153,0,0,0,.056-0.152v-1.184a4.3,4.3,0,0,0-1.472-.664,6.662,6.662,0,0,0-1.584-.2,5.818,5.818,0,0,0-1.5.184,3.745,3.745,0,0,0-1.216.552,2.623,2.623,0,0,0-1.128,2.24,3.246,3.246,0,0,0,.192,1.16,2.742,2.742,0,0,0,.544.888,3.9,3.9,0,0,0,.848.688,8.122,8.122,0,0,0,1.1.56l1.136,0.5a8.8,8.8,0,0,1,.872.464,3.87,3.87,0,0,1,.672.512,2.032,2.032,0,0,1,.432.6,1.716,1.716,0,0,1,.152.728,1.878,1.878,0,0,1-.656,1.6,3.243,3.243,0,0,1-1.968.5,4.114,4.114,0,0,1-3.248-1.408,0.094,0.094,0,1,0-.176.064v1.552A3.836,3.836,0,0,0,321.232,172.48Zm11.848-6.4h-0.032l-3.232-5.616H328.28l4.032,6.9v5.216h1.456v-5.392l4.016-6.72h-1.472Zm7.112,6.4a6.9,6.9,0,0,0,1.9.24,6.624,6.624,0,0,0,1.72-.208,3.747,3.747,0,0,0,1.328-.632,2.868,2.868,0,0,0,.856-1.072,3.6,3.6,0,0,0,.3-1.544,2.853,2.853,0,0,0-.744-2.008,6.674,6.674,0,0,0-2.216-1.464l-1.152-.512a5.356,5.356,0,0,1-.752-0.336,2.792,2.792,0,0,1-.608-0.44,1.825,1.825,0,0,1-.4-0.568,1.734,1.734,0,0,1-.144-0.72,1.415,1.415,0,0,1,.64-1.288,3.293,3.293,0,0,1,1.776-.408,4.584,4.584,0,0,1,1.5.224,5.224,5.224,0,0,1,1.3.688,0.131,0.131,0,0,0,.136.056,0.153,0.153,0,0,0,.056-0.152v-1.184a4.29,4.29,0,0,0-1.472-.664,6.662,6.662,0,0,0-1.584-.2,5.823,5.823,0,0,0-1.5.184,3.754,3.754,0,0,0-1.216.552,2.623,2.623,0,0,0-1.128,2.24,3.246,3.246,0,0,0,.192,1.16,2.742,2.742,0,0,0,.544.888,3.927,3.927,0,0,0,.848.688,8.241,8.241,0,0,0,1.1.56l1.136,0.5a8.686,8.686,0,0,1,.872.464,3.87,3.87,0,0,1,.672.512,2,2,0,0,1,.432.6,1.716,1.716,0,0,1,.152.728,1.878,1.878,0,0,1-.656,1.6,3.239,3.239,0,0,1-1.968.5,4.114,4.114,0,0,1-3.248-1.408,0.094,0.094,0,1,0-.176.064v1.552A3.836,3.836,0,0,0,340.192,172.48Zm22.373,1.455v-13.59h-0.66v13.59h0.66Zm-4.778-6.217a4.517,4.517,0,0,1-.532,1.327,2.637,2.637,0,0,1-.855.87,2.29,2.29,0,0,1-2.318,0,2.664,2.664,0,0,1-.847-0.87,4.381,4.381,0,0,1-.525-1.327,7.51,7.51,0,0,1-.18-1.7,7.605,7.605,0,0,1,.18-1.71,4.476,4.476,0,0,1,.525-1.342,2.57,2.57,0,0,1,.847-0.87,2.335,2.335,0,0,1,2.318,0,2.545,2.545,0,0,1,.855.87,4.616,4.616,0,0,1,.532,1.342,7.313,7.313,0,0,1,.188,1.71A7.222,7.222,0,0,1,357.787,167.718Zm0.57-3.81a4.751,4.751,0,0,0-.712-1.516,2.919,2.919,0,0,0-1.065-.907,3,3,0,0,0-1.335-.3,2.971,2.971,0,0,0-1.32.3,2.919,2.919,0,0,0-1.065.907,4.752,4.752,0,0,0-.713,1.516,7.609,7.609,0,0,0-.262,2.107,7.532,7.532,0,0,0,.262,2.1,4.648,4.648,0,0,0,.713,1.5,3.011,3.011,0,0,0,1.065.908,2.911,2.911,0,0,0,1.32.307,2.943,2.943,0,0,0,1.335-.307,3.011,3.011,0,0,0,1.065-.908,4.648,4.648,0,0,0,.712-1.5,7.53,7.53,0,0,0,.263-2.1A7.607,7.607,0,0,0,358.357,163.908Zm12,1.38a2.409,2.409,0,0,1-.525.832,2.359,2.359,0,0,1-.787.533,2.549,2.549,0,0,1-.99.187,2.457,2.457,0,0,1-.968-0.187,2.222,2.222,0,0,1-.765-0.533,2.436,2.436,0,0,1-.5-0.832,3.124,3.124,0,0,1-.18-1.088,3.184,3.184,0,0,1,.18-1.095,2.426,2.426,0,0,1,.5-0.84,2.31,2.31,0,0,1,.765-0.54,2.375,2.375,0,0,1,.968-0.195,2.43,2.43,0,0,1,1.777.735,2.4,2.4,0,0,1,.525.84,3.069,3.069,0,0,1,.188,1.095A3.011,3.011,0,0,1,370.357,165.288Zm0.585-2.423a2.981,2.981,0,0,0-.652-1.027,2.917,2.917,0,0,0-.99-0.661,3.284,3.284,0,0,0-1.245-.232,3.131,3.131,0,0,0-1.215.232,2.8,2.8,0,0,0-.96.661,3.008,3.008,0,0,0-.63,1.027,4.1,4.1,0,0,0,0,2.678,2.941,2.941,0,0,0,.63,1.012,2.755,2.755,0,0,0,.96.645,3.2,3.2,0,0,0,1.215.225,3.361,3.361,0,0,0,1.245-.225,2.877,2.877,0,0,0,.99-0.645,2.917,2.917,0,0,0,.652-1.012A3.964,3.964,0,0,0,370.942,162.865Zm4.718-2.52v3.69h-2.43V160.5H372.6v9.48h0.63V164.65h2.43v5.625h0.63v-9.93h-0.63Zm-7.08,12.72v-3.5h-0.645v4.095h8.61v-0.6H368.58Zm9.84-2.2a11.519,11.519,0,0,0,2.415-2.332,9.821,9.821,0,0,0,1.545-2.993,9.361,9.361,0,0,0,.742,1.44,13.539,13.539,0,0,0,.968,1.35,12.045,12.045,0,0,0,1.11,1.193,10.811,10.811,0,0,0,1.185.967l0.51-.48a8.653,8.653,0,0,1-1.418-1.1,12.039,12.039,0,0,1-1.222-1.358,11.488,11.488,0,0,1-.975-1.485,7.981,7.981,0,0,1-.645-1.5,13.163,13.163,0,0,0,.24-1.6,14.619,14.619,0,0,0,.045-1.77h-0.69a12.484,12.484,0,0,1-.21,3.2,9.543,9.543,0,0,1-.893,2.527,8.605,8.605,0,0,1-1.425,1.965,11.935,11.935,0,0,1-1.792,1.515Zm10.9,3.075v-13.59h-0.66v13.59h0.66Zm3.6-5.58a9.564,9.564,0,0,0,3.015-1.747,7.013,7.013,0,0,0,1.92-2.633,7.307,7.307,0,0,0,1.965,2.558,9.659,9.659,0,0,0,3.015,1.7l0.42-.585a8.461,8.461,0,0,1-3.33-1.912,6.826,6.826,0,0,1-1.088-1.305,5.56,5.56,0,0,1-.652-1.418,7.948,7.948,0,0,0,.21-1.965h-0.72a5.7,5.7,0,0,1-.21,2.1,6.163,6.163,0,0,1-.953,1.912,6.881,6.881,0,0,1-1.657,1.591,8.6,8.6,0,0,1-2.34,1.117Zm-1.4,3.42H404.1V171.19H391.53v0.585Z"
        transform="translate(-295.219 -159.094)"/>
</svg>
